PathFileType  4	(X/Y/Z) C:\Users\antoi\Documents\MyRepositories\mobilecap\ResultsAnalysis
DataRate	CameraRate	NumFrames	NumMarkers	Units	OrigDataRate	OrigDataStartFrame	OrigNumFrames
100.0	100.0	6	51	mm	100.0	86	137
Frame#	Time	r_knee			r_shank_antsup			r_ankle			r_calc			r_5meta			r_toe			L_knee			L_shank_antsup			L_ankle			L_calc			L_5meta			L_toe			r_sh2			r_sh3			r_sh4			L_sh2			L_sh3			r_thigh1			r_thigh2			r_thigh3			r_thigh4			r_thigh5			L_thigh1			L_thigh2			L_thigh3			L_thigh4			r.ASIS			r.PSIS			L.ASIS			L.PSIS			C7			R_Shoulder			L_Shoulder			R_Sternum			L_Sternum			R_humerus			R_elbow_med			R_elbow_lat			R_forearm			R_wrist_radius			R_wrist_ulna			L_humerus			L_elbow_med			L_elbow_lat			L_forearm			L_wrist_radius			L_wrist_ulna			R_HJC			L_HJC			R_HJC_reg			L_HJC_reg			
		X1	Y1	Z1	X2	Y2	Z2	X3	Y3	Z3	X4	Y4	Z4	X5	Y5	Z5	X6	Y6	Z6	X7	Y7	Z7	X8	Y8	Z8	X9	Y9	Z9	X10	Y10	Z10	X11	Y11	Z11	X12	Y12	Z12	X13	Y13	Z13	X14	Y14	Z14	X15	Y15	Z15	X16	Y16	Z16	X17	Y17	Z17	X18	Y18	Z18	X19	Y19	Z19	X20	Y20	Z20	X21	Y21	Z21	X22	Y22	Z22	X23	Y23	Z23	X24	Y24	Z24	X25	Y25	Z25	X26	Y26	Z26	X27	Y27	Z27	X28	Y28	Z28	X29	Y29	Z29	X30	Y30	Z30	X31	Y31	Z31	X32	Y32	Z32	X33	Y33	Z33	X34	Y34	Z34	X35	Y35	Z35	X36	Y36	Z36	X37	Y37	Z37	X38	Y38	Z38	X39	Y39	Z39	X40	Y40	Z40	X41	Y41	Z41	X42	Y42	Z42	X43	Y43	Z43	X44	Y44	Z44	X45	Y45	Z45	X46	Y46	Z46	X47	Y47	Z47	X48	Y48	Z48	X49	Y49	Z49	X50	Y50	Z50	X51	Y51	Z51	

86	0.85000000	957.03474	554.01782	-43.42098	943.51717	449.79010	-62.35413	655.39831	265.83266	-97.03597	569.96342	297.29860	-148.73314	662.30916	120.70158	-67.17136	728.20124	99.87440	-126.40497	896.66479	538.16111	-361.85400	907.80025	443.64232	-375.87265	899.32412	116.64158	-290.78206	822.67743	71.51265	-235.31648	1016.62373	49.67821	-316.12323	1074.36099	82.17292	-252.54495	854.06233	378.80233	-43.84140	909.07700	500.17797	-17.21500	807.24257	442.27341	-15.08763	817.36131	442.05073	-373.76070	835.13616	322.77940	-355.42872	933.52431	877.87679	-47.21967	971.28164	774.44898	-40.88954	924.00007	733.46674	-13.31635	829.95320	840.50158	-31.99754	870.97905	732.37983	-33.73401	937.05949	844.78587	-386.54292	961.69842	708.24537	-361.43255	834.68418	819.21710	-417.21000	855.45070	685.63436	-396.69189	893.71453	1079.37605	-89.20243	715.07605	1071.04891	-167.33093	905.60897	1081.80465	-341.24915	716.96930	1077.38209	-277.59410	799.80181	1634.37176	-228.43558	849.49262	1563.82940	-62.24780	813.12053	1553.66895	-397.47935	901.03723	1520.01445	-202.04345	893.87145	1515.84687	-259.77015	842.74390	1408.47077	8.90626	749.22632	1210.01821	-25.75112	765.45999	1230.97423	56.76709	854.44271	1079.54984	78.89920	914.05729	1002.64083	68.40805	873.50579	997.81125	92.73803	771.57669	1423.17050	-466.92225	703.50354	1203.16650	-373.36649	706.62608	1205.48943	-455.76247	735.03152	1137.59879	-478.38044	758.73783	958.32762	-471.03588	718.97112	960.73361	-482.60372	828.89639	954.50681	-115.74286	832.41062	963.86078	-322.45849	850.36283	985.37293	-130.80702	853.21697	994.92357	-297.05478	
87	0.86000000	980.12585	559.82889	-44.09352	969.72690	454.68073	-62.47600	689.01025	260.31468	-94.41479	601.52830	286.11880	-146.60101	703.76709	116.92410	-61.12975	770.36229	98.11183	-120.16098	901.87983	538.40710	-361.58074	911.85119	443.79586	-375.76539	900.03645	117.02569	-290.59542	822.90732	71.60061	-235.22313	1016.68537	49.61079	-316.15991	1074.69848	81.17986	-252.22866	883.72588	380.94586	-42.83209	933.90545	504.43264	-17.47849	834.65527	442.81091	-14.38936	821.43820	443.07890	-373.81162	837.88936	323.74281	-355.43617	948.97981	882.84921	-47.86202	989.68869	780.52480	-41.97665	944.01373	738.34750	-13.54284	846.84082	842.81851	-31.56175	890.88799	735.52383	-33.30688	946.82637	844.62324	-385.99264	969.48852	707.73823	-360.85387	844.25618	820.40159	-417.06022	863.06681	686.57310	-396.61714	905.78726	1082.01102	-89.74098	727.27912	1073.27490	-167.15019	917.48312	1083.01642	-341.64902	729.10555	1079.22390	-277.49245	812.65064	1636.12027	-227.96795	861.15020	1565.43605	-61.47302	827.03025	1555.98984	-396.87683	913.51289	1521.77344	-200.96204	906.43282	1517.51315	-258.77181	853.17092	1409.72505	9.12563	758.53331	1212.36285	-27.40633	774.17385	1232.57711	55.26720	858.26303	1078.72370	78.72458	915.48457	999.79209	69.10611	874.37849	996.36852	92.90612	788.22564	1425.43423	-467.50216	723.53781	1203.20055	-376.73728	728.14802	1206.21454	-459.03789	759.11841	1139.31307	-481.35324	788.24395	960.87291	-474.95299	748.82186	961.79351	-487.03044	841.06590	957.01540	-115.29502	844.20328	965.27212	-322.06468	862.49802	987.61711	-130.96232	865.24881	996.57799	-297.13892	
88	0.87000000	1002.46585	565.44879	-44.96700	995.18482	459.57392	-62.36210	723.20253	253.77122	-91.74130	634.03187	273.60206	-144.30685	746.07980	112.64578	-55.34156	813.45133	96.22219	-114.15688	906.92012	538.58721	-361.34991	915.88008	443.91929	-375.68099	900.73314	117.39437	-290.43363	823.23736	71.68242	-235.11023	1016.74763	49.55183	-316.20360	1074.93426	80.22746	-251.94508	912.94677	382.99484	-41.62363	957.64952	508.64693	-17.77934	861.33870	443.05965	-13.84532	825.48221	444.01086	-373.97739	840.68153	324.64424	-355.52693	964.20275	887.48932	-48.41887	1007.72598	786.36327	-43.02938	963.56173	743.10719	-13.79713	863.48117	845.04601	-31.02654	910.49566	738.69091	-32.83636	956.36254	844.25667	-385.84158	976.99514	707.05333	-360.61684	853.48194	821.43073	-416.87834	870.35305	687.45273	-396.62838	917.90872	1084.31056	-90.27729	739.47085	1075.24398	-166.72346	929.20689	1084.02303	-342.04684	741.14928	1080.84783	-277.13943	825.43900	1637.62826	-227.52289	872.88789	1566.78154	-60.76637	840.87570	1558.14868	-396.30453	925.97937	1523.31223	-199.98556	918.98492	1519.00980	-257.85683	863.62771	1410.74887	9.31242	767.85685	1214.51026	-28.96517	782.84895	1234.05656	53.85230	861.99695	1077.95410	78.59267	916.78709	997.10757	69.81706	875.19955	995.10510	93.07847	804.86108	1427.67162	-468.09557	743.59354	1203.26398	-380.08299	749.57873	1207.05657	-462.30250	783.09852	1141.22407	-484.30778	817.82947	963.89708	-478.88889	778.73599	963.18750	-491.39177	853.27667	959.21975	-114.80630	855.81966	966.47847	-321.62234	874.61906	989.57560	-131.11379	877.14474	998.00664	-297.21601	
89	0.88000000	1023.97763	570.80243	-45.99577	1019.94517	464.48518	-62.06429	758.02300	246.35148	-89.05057	667.53278	259.88830	-141.85491	789.33685	108.04903	-49.82661	857.45836	94.41880	-108.46511	911.76100	538.72622	-361.14475	919.77258	444.02826	-375.56051	901.37488	117.73362	-290.26410	823.64582	71.75477	-234.97603	1016.80905	49.49889	-316.24903	1075.06952	79.34462	-251.70606	941.65548	384.94474	-40.29565	980.34464	512.71215	-18.18049	887.26259	442.98845	-13.51461	829.38217	444.89620	-374.07744	843.38735	325.51264	-355.57178	979.25700	891.78710	-48.89708	1025.38231	791.89266	-44.04122	982.60993	747.66393	-14.09540	879.89387	847.16719	-30.45846	929.67564	741.81345	-32.45821	965.68132	843.73143	-385.99338	984.24696	706.23389	-360.66539	862.39918	822.35714	-416.65242	877.31522	688.28578	-396.66562	930.07016	1086.25157	-90.81624	751.65057	1076.89609	-166.09608	940.78733	1084.83199	-342.43621	753.09995	1082.21835	-276.56827	838.17129	1638.89190	-227.10109	884.72752	1567.83725	-60.11213	854.68273	1560.09423	-395.76301	938.45602	1524.61581	-199.10683	931.61039	1520.35466	-257.00943	874.12615	1411.51749	9.48681	777.20302	1216.40850	-30.41673	791.50403	1235.36718	52.52566	865.68630	1077.20267	78.49513	918.01208	994.55340	70.53094	876.03454	993.98716	93.23908	821.46811	1429.81973	-468.69965	763.62580	1203.29781	-383.42291	770.90659	1207.94362	-465.56916	806.95869	1143.25625	-487.25577	847.48126	967.35587	-482.80175	808.66568	964.89341	-495.66647	865.54304	961.08259	-114.30944	867.29866	967.47041	-321.16265	886.75217	991.20975	-131.28700	888.93152	999.20816	-297.30177	
90	0.89000000	1044.54664	575.82329	-47.12870	1043.99552	469.38141	-61.65498	793.51171	238.21119	-86.38077	702.12235	245.15850	-139.29026	833.52308	103.30656	-44.61972	902.29709	92.87692	-103.13421	916.37441	538.85159	-360.95456	923.41205	444.14308	-375.37031	901.93659	118.03269	-290.06577	824.08271	71.81853	-234.83011	1016.86605	49.44642	-316.29595	1075.12046	78.55068	-251.52579	969.80369	386.77205	-38.92461	1002.02214	516.50398	-18.74821	912.43160	442.54133	-13.44985	833.02543	445.79150	-373.96365	845.88259	326.38432	-355.46765	994.19689	895.73924	-49.30256	1042.62836	797.02942	-45.01233	1001.11697	751.94140	-14.46049	896.09479	849.16719	-29.92478	948.30648	744.82542	-32.28908	974.81040	843.09705	-386.32533	991.29662	705.33265	-360.92234	871.06063	823.23240	-416.37644	883.98976	689.08562	-396.66622	942.26294	1087.83952	-91.35718	763.82024	1078.20055	-165.31797	952.25867	1085.45934	-342.80940	764.96763	1083.31659	-275.82038	850.85862	1639.92180	-226.69964	896.67697	1568.59512	-59.49084	868.47641	1561.78544	-395.24802	950.95351	1525.68071	-198.30894	944.34723	1521.55273	-256.21087	884.67273	1412.02478	9.67174	786.57847	1218.02762	-31.75427	800.16667	1236.47967	51.28830	869.37926	1076.44256	78.42148	919.20543	992.10039	71.23638	876.94273	992.98737	93.37409	838.01958	1431.81745	-469.30910	783.60973	1203.24892	-386.77622	792.13524	1208.81202	-468.84668	830.70837	1145.34276	-490.20432	877.19485	971.17535	-486.62147	838.59354	966.89248	-499.83015	877.87675	962.59541	-113.82659	878.69378	968.24960	-320.70702	898.92412	992.51061	-131.49455	900.64838	1000.19145	-297.40337	
91	0.90000000	1064.06670	580.44301	-48.32466	1067.27239	474.17261	-61.19830	829.68807	229.52322	-83.78182	737.89206	229.64558	-136.69463	878.52746	98.59630	-39.76613	947.81361	91.74427	-98.19986	920.74063	538.98594	-360.77349	926.71524	444.28198	-375.10889	902.41398	118.28959	-289.83317	824.48258	71.88383	-234.68910	1016.91587	49.39029	-316.34454	1075.11844	77.85613	-251.41340	997.36036	388.43247	-37.56991	1022.69504	519.88302	-19.52352	936.88515	441.64124	-13.67696	836.33237	446.74337	-373.55619	848.08195	327.29075	-355.16010	1009.05440	899.33037	-49.63815	1059.41938	801.67132	-45.94687	1019.02852	755.85430	-14.91969	912.07244	851.02236	-29.48248	966.29461	747.64665	-32.40991	983.78493	842.39370	-386.72256	998.20072	704.39590	-361.30400	879.52257	824.09291	-416.05276	890.43926	689.86444	-396.58792	954.49116	1089.10183	-91.88719	775.98657	1079.15503	-164.43533	963.67366	1085.92581	-343.15652	776.77575	1084.13930	-274.93946	863.51873	1640.73507	-226.31162	908.73228	1569.06616	-58.88318	882.27588	1563.19402	-394.75202	963.47540	1526.51144	-197.56849	957.18635	1522.59043	-255.44356	895.26895	1412.27773	9.88581	795.99021	1219.36241	-32.97770	808.86903	1237.38316	50.13886	873.12892	1075.66078	78.35955	920.41341	989.73097	71.92095	877.97291	992.08624	93.47364	854.48363	1433.61477	-469.91645	803.54643	1203.07662	-390.15369	813.28228	1209.61468	-472.13698	854.36830	1147.43512	-493.15385	906.94621	975.25961	-490.27867	868.51331	969.17177	-503.86105	890.29139	963.77402	-113.36633	890.06803	968.82647	-320.26387	911.16104	993.49363	-131.73086	912.34654	1000.97062	-297.51773	
